<svg xmlns="http://www.w3.org/2000/svg" viewBox="0 0 1200 600" width="1200" height="600">
  <defs>
    <!-- Violet glow filter -->
    <filter id="violetGlow" x="-50%" y="-50%" width="200%" height="200%">
      <feGaussianBlur stdDeviation="8" result="coloredBlur" />
      <feMerge>
        <feMergeNode in="coloredBlur" />
        <feMergeNode in="SourceGraphic" />
      </feMerge>
    </filter>

    <!-- Screen gradients for each mockup -->
    <linearGradient id="screenGrad1" x1="0%" y1="0%" x2="0%" y2="100%">
      <stop offset="0%" style="stop-color:#1a1628" />
      <stop offset="100%" style="stop-color:#0D0B1A" />
    </linearGradient>
    <linearGradient id="screenGrad2" x1="0%" y1="0%" x2="0%" y2="100%">
      <stop offset="0%" style="stop-color:#1a1628" />
      <stop offset="100%" style="stop-color:#0D0B1A" />
    </linearGradient>
  </defs>

  <!-- Dark background -->
  <rect width="1200" height="600" style="fill:#0D0B1A" />

  <!-- "Beautiful Cosmic UI" tagline -->
  <text x="600" y="45" style="font-family:Arial,sans-serif;font-size:32px;font-weight:bold;fill:#FFFFFF;text-anchor:middle">Beautiful Cosmic UI</text>

  <!-- Phone frames arranged in a slight arc/fan -->

  <!-- Frame 1: Home -->
  <g transform="translate(120, 180) rotate(-12)">
    <!-- Phone frame with glow -->
    <rect x="0" y="0" width="140" height="280" rx="20" style="fill:none;stroke:#7C3AED;stroke-width:2;filter:url(#violetGlow)" />
    <!-- Screen background -->
    <rect x="6" y="6" width="128" height="268" rx="16" style="fill:url(#screenGrad1)" />

    <!-- Home screen content -->
    <!-- Status bar -->
    <rect x="6" y="6" width="128" height="30" style="fill:#1a1628" />
    <text x="70" y="24" style="font-family:Arial,sans-serif;font-size:10px;fill:#C4B5FD;text-anchor:middle">9:41</text>

    <!-- Title -->
    <text x="70" y="50" style="font-family:Arial,sans-serif;font-size:12px;font-weight:bold;fill:#FFFFFF;text-anchor:middle">Welcome Back</text>

    <!-- Circular stats rings -->
    <circle cx="50" cy="100" r="20" style="fill:none;stroke:#7C3AED;stroke-width:2;opacity:0.5" />
    <circle cx="50" cy="100" r="20" style="fill:none;stroke:#F472B6;stroke-width:3;stroke-dasharray:80 120;opacity:0.8" />
    <text x="50" y="103" style="font-family:Arial,sans-serif;font-size:9px;fill:#FBBF24;text-anchor:middle;font-weight:bold">65%</text>

    <circle cx="90" cy="100" r="20" style="fill:none;stroke:#34D399;stroke-width:2;opacity:0.5" />
    <circle cx="90" cy="100" r="20" style="fill:none;stroke:#FBBF24;stroke-width:3;stroke-dasharray:100 120;opacity:0.8" />
    <text x="90" y="103" style="font-family:Arial,sans-serif;font-size:9px;fill:#34D399;text-anchor:middle;font-weight:bold">82%</text>

    <!-- Menu items -->
    <rect x="12" y="140" width="116" height="8" rx="2" style="fill:#7C3AED;opacity:0.6" />
    <rect x="12" y="155" width="116" height="8" rx="2" style="fill:#F472B6;opacity:0.5" />
    <rect x="12" y="170" width="116" height="8" rx="2" style="fill:#34D399;opacity:0.5" />
    <rect x="12" y="185" width="116" height="8" rx="2" style="fill:#C4B5FD;opacity:0.4" />
    <rect x="12" y="200" width="116" height="8" rx="2" style="fill:#7C3AED;opacity:0.5" />

    <!-- Bottom nav -->
    <line x1="12" y1="230" x2="128" y2="230" style="stroke:#7C3AED;stroke-width:0.5;opacity:0.3" />
    <circle cx="30" cy="245" r="5" style="fill:#F472B6" />
    <circle cx="55" cy="245" r="5" style="fill:#7C3AED;opacity:0.6" />
    <circle cx="80" cy="245" r="5" style="fill:#7C3AED;opacity:0.6" />
    <circle cx="105" cy="245" r="5" style="fill:#7C3AED;opacity:0.6" />
  </g>

  <!-- Label for Frame 1 -->
  <text x="120" y="490" style="font-family:Arial,sans-serif;font-size:14px;font-weight:bold;fill:#FFFFFF;text-anchor:middle">Home</text>

  <!-- Frame 2: Breathe -->
  <g transform="translate(340, 150)">
    <!-- Phone frame with glow -->
    <rect x="0" y="0" width="140" height="280" rx="20" style="fill:none;stroke:#7C3AED;stroke-width:2;filter:url(#violetGlow)" />
    <!-- Screen background -->
    <rect x="6" y="6" width="128" height="268" rx="16" style="fill:url(#screenGrad2)" />

    <!-- Breathe screen content -->
    <!-- Status bar -->
    <rect x="6" y="6" width="128" height="30" style="fill:#1a1628" />
    <text x="70" y="24" style="font-family:Arial,sans-serif;font-size:10px;fill:#C4B5FD;text-anchor:middle">9:41</text>

    <!-- Title -->
    <text x="70" y="50" style="font-family:Arial,sans-serif;font-size:12px;font-weight:bold;fill:#FFFFFF;text-anchor:middle">Breathwork</text>

    <!-- Large breathing circle -->
    <circle cx="70" cy="130" r="35" style="fill:none;stroke:#C4B5FD;stroke-width:3;opacity:0.3" />
    <circle cx="70" cy="130" r="28" style="fill:none;stroke:#F472B6;stroke-width:2;opacity:0.6" />
    <circle cx="70" cy="130" r="22" style="fill:none;stroke:#7C3AED;stroke-width:2;opacity:0.8" />

    <!-- Breathing text -->
    <text x="70" y="130" style="font-family:Arial,sans-serif;font-size:14px;font-weight:bold;fill:#FBBF24;text-anchor:middle;dominant-baseline:middle">4-7-8</text>

    <!-- Instruction text -->
    <text x="70" y="200" style="font-family:Arial,sans-serif;font-size:9px;fill:#C4B5FD;text-anchor:middle">Inhale 4s, Hold 7s, Exhale 8s</text>

    <!-- Bottom buttons -->
    <rect x="15" y="230" width="50" height="20" rx="8" style="fill:#7C3AED;opacity:0.6" />
    <text x="40" y="241" style="font-family:Arial,sans-serif;font-size:9px;fill:#FFFFFF;text-anchor:middle;dominant-baseline:middle">Start</text>

    <rect x="75" y="230" width="50" height="20" rx="8" style="fill:#34D399;opacity:0.5" />
    <text x="100" y="241" style="font-family:Arial,sans-serif;font-size:9px;fill:#FFFFFF;text-anchor:middle;dominant-baseline:middle">More</text>
  </g>

  <!-- Label for Frame 2 -->
  <text x="340" y="490" style="font-family:Arial,sans-serif;font-size:14px;font-weight:bold;fill:#FFFFFF;text-anchor:middle">Breathe</text>

  <!-- Frame 3: Yoga -->
  <g transform="translate(560, 140)">
    <!-- Phone frame with glow -->
    <rect x="0" y="0" width="140" height="280" rx="20" style="fill:none;stroke:#7C3AED;stroke-width:2;filter:url(#violetGlow)" />
    <!-- Screen background -->
    <rect x="6" y="6" width="128" height="268" rx="16" style="fill:url(#screenGrad1)" />

    <!-- Yoga screen content -->
    <!-- Status bar -->
    <rect x="6" y="6" width="128" height="30" style="fill:#1a1628" />
    <text x="70" y="24" style="font-family:Arial,sans-serif;font-size:10px;fill:#C4B5FD;text-anchor:middle">9:41</text>

    <!-- Title -->
    <text x="70" y="50" style="font-family:Arial,sans-serif;font-size:12px;font-weight:bold;fill:#FFFFFF;text-anchor:middle">Yoga Classes</text>

    <!-- Stacked cards -->
    <rect x="12" y="70" width="116" height="40" rx="6" style="fill:#7C3AED;opacity:0.5" />
    <text x="20" y="87" style="font-family:Arial,sans-serif;font-size:10px;font-weight:bold;fill:#FFFFFF">Beginner Hatha</text>
    <text x="20" y="100" style="font-family:Arial,sans-serif;font-size:8px;fill:#C4B5FD">30 min • 4.8★</text>

    <rect x="12" y="120" width="116" height="40" rx="6" style="fill:#F472B6;opacity:0.5" />
    <text x="20" y="137" style="font-family:Arial,sans-serif;font-size:10px;font-weight:bold;fill:#FFFFFF">Flow Vinyasa</text>
    <text x="20" y="150" style="font-family:Arial,sans-serif;font-size:8px;fill:#C4B5FD">45 min • 4.9★</text>

    <rect x="12" y="170" width="116" height="40" rx="6" style="fill:#34D399;opacity:0.4" />
    <text x="20" y="187" style="font-family:Arial,sans-serif;font-size:10px;font-weight:bold;fill:#FFFFFF">Restorative Yin</text>
    <text x="20" y="200" style="font-family:Arial,sans-serif;font-size:8px;fill:#C4B5FD">60 min • 4.7★</text>

    <!-- Bottom nav dot -->
    <circle cx="70" cy="250" r="2" style="fill:#F472B6" />
  </g>

  <!-- Label for Frame 3 -->
  <text x="560" y="490" style="font-family:Arial,sans-serif;font-size:14px;font-weight:bold;fill:#FFFFFF;text-anchor:middle">Yoga</text>

  <!-- Frame 4: Nutrition -->
  <g transform="translate(780, 150) rotate(8)">
    <!-- Phone frame with glow -->
    <rect x="0" y="0" width="140" height="280" rx="20" style="fill:none;stroke:#7C3AED;stroke-width:2;filter:url(#violetGlow)" />
    <!-- Screen background -->
    <rect x="6" y="6" width="128" height="268" rx="16" style="fill:url(#screenGrad2)" />

    <!-- Nutrition screen content -->
    <!-- Status bar -->
    <rect x="6" y="6" width="128" height="30" style="fill:#1a1628" />
    <text x="70" y="24" style="font-family:Arial,sans-serif;font-size:10px;fill:#C4B5FD;text-anchor:middle">9:41</text>

    <!-- Title -->
    <text x="70" y="50" style="font-family:Arial,sans-serif;font-size:12px;font-weight:bold;fill:#FFFFFF;text-anchor:middle">Nutrition</text>

    <!-- Circular progress rings -->
    <circle cx="45" cy="120" r="25" style="fill:none;stroke:#7C3AED;stroke-width:2;opacity:0.3" />
    <circle cx="45" cy="120" r="25" style="fill:none;stroke:#34D399;stroke-width:3;stroke-dasharray:140 160;opacity:0.9" />
    <text x="45" y="123" style="font-family:Arial,sans-serif;font-size:8px;fill:#FFFFFF;text-anchor:middle;font-weight:bold">1850</text>
    <text x="45" y="133" style="font-family:Arial,sans-serif;font-size:7px;fill:#C4B5FD;text-anchor:middle">kcal</text>

    <circle cx="95" cy="120" r="25" style="fill:none;stroke:#7C3AED;stroke-width:2;opacity:0.3" />
    <circle cx="95" cy="120" r="25" style="fill:none;stroke:#F472B6;stroke-width:3;stroke-dasharray:110 160;opacity:0.9" />
    <text x="95" y="123" style="font-family:Arial,sans-serif;font-size:8px;fill:#FFFFFF;text-anchor:middle;font-weight:bold">72g</text>
    <text x="95" y="133" style="font-family:Arial,sans-serif;font-size:7px;fill:#C4B5FD;text-anchor:middle">Protein</text>

    <!-- Stats bars -->
    <rect x="12" y="175" width="116" height="6" rx="2" style="fill:#7C3AED;opacity:0.3" />
    <rect x="12" y="175" width="70" height="6" rx="2" style="fill:#FBBF24" />

    <rect x="12" y="190" width="116" height="6" rx="2" style="fill:#7C3AED;opacity:0.3" />
    <rect x="12" y="190" width="85" height="6" rx="2" style="fill:#34D399" />

    <rect x="12" y="205" width="116" height="6" rx="2" style="fill:#7C3AED;opacity:0.3" />
    <rect x="12" y="205" width="60" height="6" rx="2" style="fill:#F472B6" />
  </g>

  <!-- Label for Frame 4 -->
  <text x="780" y="490" style="font-family:Arial,sans-serif;font-size:14px;font-weight:bold;fill:#FFFFFF;text-anchor:middle">Nutrition</text>

  <!-- Frame 5: Profile -->
  <g transform="translate(1000, 180) rotate(12)">
    <!-- Phone frame with glow -->
    <rect x="0" y="0" width="140" height="280" rx="20" style="fill:none;stroke:#7C3AED;stroke-width:2;filter:url(#violetGlow)" />
    <!-- Screen background -->
    <rect x="6" y="6" width="128" height="268" rx="16" style="fill:url(#screenGrad1)" />

    <!-- Profile screen content -->
    <!-- Status bar -->
    <rect x="6" y="6" width="128" height="30" style="fill:#1a1628" />
    <text x="70" y="24" style="font-family:Arial,sans-serif;font-size:10px;fill:#C4B5FD;text-anchor:middle">9:41</text>

    <!-- Title -->
    <text x="70" y="50" style="font-family:Arial,sans-serif;font-size:12px;font-weight:bold;fill:#FFFFFF;text-anchor:middle">Profile</text>

    <!-- Avatar circle -->
    <circle cx="70" cy="85" r="18" style="fill:#F472B6;opacity:0.7" />
    <circle cx="70" cy="85" r="16" style="fill:#7C3AED;opacity:0.5" />
    <text x="70" y="88" style="font-family:Arial,sans-serif;font-size:18px;fill:#FFFFFF;text-anchor:middle;dominant-baseline:middle">👤</text>

    <!-- User info -->
    <text x="70" y="115" style="font-family:Arial,sans-serif;font-size:10px;font-weight:bold;fill:#FFFFFF;text-anchor:middle">Jane Doe</text>
    <text x="70" y="126" style="font-family:Arial,sans-serif;font-size:8px;fill:#C4B5FD;text-anchor:middle">Yoga Enthusiast</text>

    <!-- Menu items -->
    <rect x="12" y="140" width="116" height="8" rx="2" style="fill:#7C3AED;opacity:0.6" />
    <rect x="12" y="155" width="116" height="8" rx="2" style="fill:#F472B6;opacity:0.5" />
    <rect x="12" y="170" width="116" height="8" rx="2" style="fill:#34D399;opacity:0.5" />
    <rect x="12" y="185" width="116" height="8" rx="2" style="fill:#C4B5FD;opacity:0.4" />
    <rect x="12" y="200" width="116" height="8" rx="2" style="fill:#7C3AED;opacity:0.5" />

    <!-- Bottom logout button -->
    <rect x="12" y="225" width="116" height="18" rx="6" style="fill:#F472B6;opacity:0.7" />
    <text x="70" y="234" style="font-family:Arial,sans-serif;font-size:8px;fill:#FFFFFF;text-anchor:middle;dominant-baseline:middle">Logout</text>
  </g>

  <!-- Label for Frame 5 -->
  <text x="1000" y="490" style="font-family:Arial,sans-serif;font-size:14px;font-weight:bold;fill:#FFFFFF;text-anchor:middle">Profile</text>
</svg>
